<svg width="400" height="300" xmlns="http://www.w3.org/2000/svg">
  <!-- Background -->
  <rect width="100%" height="100%" fill="#e9eef2" />
  
  <!-- Map grid lines -->
  <g stroke="#c4d1d9" stroke-width="1">
    <line x1="0" y1="50" x2="400" y2="50" />
    <line x1="0" y1="100" x2="400" y2="100" />
    <line x1="0" y1="150" x2="400" y2="150" />
    <line x1="0" y1="200" x2="400" y2="200" />
    <line x1="0" y1="250" x2="400" y2="250" />
    <line x1="50" y1="0" x2="50" y2="300" />
    <line x1="100" y1="0" x2="100" y2="300" />
    <line x1="150" y1="0" x2="150" y2="300" />
    <line x1="200" y1="0" x2="200" y2="300" />
    <line x1="250" y1="0" x2="250" y2="300" />
    <line x1="300" y1="0" x2="300" y2="300" />
    <line x1="350" y1="0" x2="350" y2="300" />
  </g>
  
  <!-- Roads -->
  <g stroke="#ffffff" stroke-width="8">
    <line x1="50" y1="80" x2="350" y2="80" />
    <line x1="200" y1="30" x2="200" y2="270" />
    <line x1="100" y1="180" x2="300" y2="180" />
  </g>
  <g stroke="#a3c2d5" stroke-width="6">
    <line x1="50" y1="80" x2="350" y2="80" />
    <line x1="200" y1="30" x2="200" y2="270" />
    <line x1="100" y1="180" x2="300" y2="180" />
  </g>
  
  <!-- Parks/Green areas -->
  <g fill="#c8e6c9">
    <rect x="50" y="120" width="60" height="40" rx="5" />
    <rect x="280" y="200" width="70" height="50" rx="5" />
    <circle cx="100" cy="240" r="25" />
  </g>
  
  <!-- Buildings -->
  <g fill="#d1d1d1">
    <rect x="130" y="100" width="20" height="20" />
    <rect x="160" y="100" width="15" height="25" />
    <rect x="240" y="120" width="30" height="20" />
    <rect x="130" y="220" width="25" height="15" />
    <rect x="170" y="230" width="20" height="20" />
  </g>
  
  <!-- Location marker -->
  <g transform="translate(200,150)">
    <path d="M0,-30 C-15,-30 -25,-15 -25,0 C-25,20 0,40 0,40 C0,40 25,20 25,0 C25,-15 15,-30 0,-30 Z" fill="#f44336" />
    <circle cx="0" cy="-5" r="8" fill="white" />
  </g>
</svg>