<svg xmlns="http://www.w3.org/2000/svg" viewBox="0 0 1200 600" width="1200" height="600">
  <!-- Background - Ocean -->
  <rect x="0" y="0" width="1200" height="600" fill="#0ab9e6"/>
  
  <!-- Sky -->
  <rect x="0" y="0" width="1200" height="300" fill="#87ceeb"/>
  
  <!-- Horizon line -->
  <rect x="0" y="300" width="1200" height="5" fill="#0077be"/>
  
  <!-- Distant island with palm trees -->
  <rect x="800" y="280" width="300" height="30" rx="15" fill="#006400"/>
  
  <!-- Palm trees on island -->
  <g transform="translate(850, 260) scale(0.5)">
    <!-- Palm tree trunk -->
    <rect x="10" y="10" width="10" height="40" fill="#8b4513"/>
    <!-- Palm tree leaves -->
    <path d="M0,10 Q15,-10 30,10" stroke="#006400" stroke-width="5" fill="none"/>
    <path d="M0,0 Q15,-20 30,0" stroke="#006400" stroke-width="5" fill="none"/>
    <path d="M0,-10 Q15,-30 30,-10" stroke="#006400" stroke-width="5" fill="none"/>
  </g>
  
  <g transform="translate(900, 260) scale(0.5)">
    <rect x="10" y="10" width="10" height="40" fill="#8b4513"/>
    <path d="M0,10 Q15,-10 30,10" stroke="#006400" stroke-width="5" fill="none"/>
    <path d="M0,0 Q15,-20 30,0" stroke="#006400" stroke-width="5" fill="none"/>
    <path d="M0,-10 Q15,-30 30,-10" stroke="#006400" stroke-width="5" fill="none"/>
  </g>
  
  <g transform="translate(950, 260) scale(0.5)">
    <rect x="10" y="10" width="10" height="40" fill="#8b4513"/>
    <path d="M0,10 Q15,-10 30,10" stroke="#006400" stroke-width="5" fill="none"/>
    <path d="M0,0 Q15,-20 30,0" stroke="#006400" stroke-width="5" fill="none"/>
    <path d="M0,-10 Q15,-30 30,-10" stroke="#006400" stroke-width="5" fill="none"/>
  </g>
  
  <!-- Couple silhouette -->
  <!-- Person 1 with hat -->
  <g transform="translate(400, 350)">
    <!-- Hat -->
    <ellipse cx="25" cy="15" rx="25" ry="10" fill="#d2b48c"/>
    <ellipse cx="25" cy="10" rx="15" ry="5" fill="#d2b48c"/>
    <!-- Head -->
    <circle cx="25" cy="30" r="15" fill="#deb887"/>
    <!-- Body -->
    <rect x="15" y="45" width="20" height="40" fill="#f5deb3" rx="5"/>
  </g>
  
  <!-- Person 2 -->
  <g transform="translate(450, 350)">
    <!-- Head -->
    <circle cx="25" cy="30" r="15" fill="#deb887"/>
    <!-- Body -->
    <rect x="15" y="45" width="20" height="40" fill="#ffffff" rx="5"/>
  </g>
</svg>